LG_Sit_Stand_Walk03																		
version=1																		
nRows=91																		
nColumns=19																		
inDegrees=yes																		
endheader																		
time	ground_force2_vx	ground_force2_vy	ground_force2_vz	ground_force2_px	ground_force2_py	ground_force2_pz	ground_torque2_x	ground_torque2_y	ground_torque2_z	ground_force1_vx	ground_force1_vy	ground_force1_vz	ground_force1_px	ground_force1_py	ground_force1_pz	ground_torque1_x	ground_torque1_y	ground_torque1_z
3.19	8.740185	109.53978	-0.068674	0.215914	0	-0.345714	3.00E-06	1.066607	0	0	0	0	-0.13	0	0.305	0	0	0
3.191	8.740185	109.53978	-0.61727	0.21713	0	-0.351086	3.00E-06	1.184499	1.00E-06	0	0	0	-0.13	0	0.305	0	0	0
3.192	8.740185	111.272491	-0.068674	0.21713	0	-0.345714	3.00E-06	1.184499	1.00E-06	0	0	0	-0.13	0	0.305	0	0	0
3.193	8.978067	112.125717	-0.068874	0.21713	0	-0.345588	2.00E-06	1.184499	1.00E-06	0	0	0	-0.13	0	0.305	0	0	0
3.194	8.978067	112.125717	-0.068874	0.215908	0	-0.345588	2.00E-06	1.249167	2.00E-06	0	0	0	-0.13	0	0.305	0	0	0
3.195	8.74235	113.67363	-0.068874	0.217374	0	-0.344584	2.00E-06	1.249167	2.00E-06	0	0	0	-0.13	0	0.305	0	0	0
3.196	8.588089	113.67363	-0.303867	0.217374	0	-0.345729	0	1.135921	2.00E-06	0	0	0	-0.13	0	0.305	0	0	0
3.197	8.588089	113.67363	0.009575	0.217374	0	-0.345729	0	1.135921	2.00E-06	0	0	0	-0.13	0	0.305	0	0	0
3.198	8.588089	113.500793	-0.147005	0.218122	0	-0.346075	1.00E-06	1.135921	2.00E-06	0	0	0	-0.13	0	0.305	0	0	0
3.199	8.743792	112.121048	-0.147005	0.219005	0	-0.348101	2.00E-06	1.030611	2.00E-06	0	0	0	-0.13	0	0.305	0	0	0
3.2	9.05736	112.114883	-0.382318	0.219005	0	-0.350333	1.00E-06	1.030611	1.00E-06	0	0	0	-0.13	0	0.305	0	0	0
3.201	9.05736	112.121048	-0.382318	0.216827	0	-0.350333	0	1.030611	1.00E-06	0	0	0	-0.13	0	0.305	0	0	0
3.202	9.05736	113.493835	-0.382318	0.21571	0	-0.349819	0	1.035448	1.00E-06	0	0	0	-0.13	0	0.305	0	0	0
3.203	8.900215	113.493835	-0.85218	0.21571	0	-0.347433	1.00E-06	1.035448	1.00E-06	0	0	0	-0.13	0	0.305	0	0	0
3.204	8.588089	113.682114	-0.85218	0.216602	0	-0.347205	1.00E-06	1.067907	1.00E-06	0	0	0	-0.13	0	0.305	0	0	0
3.205	8.428059	112.462036	-0.77389	0.216932	0	-0.347433	1.00E-06	1.213165	1.00E-06	0	0	0	-0.13	0	0.305	0	0	0
3.206	8.588089	113.491165	-0.147085	0.217196	0	-0.348055	4.00E-06	1.109036	1.00E-06	0	0	0	-0.13	0	0.305	0	0	0
3.207	8.510239	113.157135	-0.225416	0.217196	0	-0.348055	4.00E-06	1.109036	1.00E-06	0	0	0	-0.13	0	0.305	0	0	0
3.208	8.510962	113.491165	0.087946	0.217169	0	-0.348055	0.00E+00	1.030225	2.00E-06	0	0	0	-0.13	0	0.305	0	0	0
3.209	8.510962	113.157135	-0.068756	0.216758	0	-0.346026	0	1.030225	2.00E-06	0	0	0	-0.13	0	0.305	0	0	0
3.21	8.510962	112.462807	-0.068756	0.216758	0	-0.349324	0.00E+00	1.096414	2.00E-06	0	0	0	-0.13	0	0.305	0	0	0
3.211	8.429501	112.462807	-0.225536	0.217432	0	-0.349324	1.00E-06	1.096414	2.00E-06	0	0	0	-0.13	0	0.305	0	0	0
3.212	8.429501	112.462807	-0.225536	0.217432	0	-0.350104	1.00E-06	1.045278	1.00E-06	0	0	0	-0.13	0	0.305	0	0	0
3.213	8.353815	111.948242	-0.225294	0.217266	0	-0.35035	1.00E-06	0.934382	1.00E-06	0	0	0	-0.13	0	0.305	0	0	0
3.214	8.353815	110.908752	-0.225294	0.215707	0	-0.35035	2.00E-06	0.934382	1.00E-06	0	0	0	-0.13	0	0.305	0	0	0
3.215	8.353815	110.908752	-0.225294	0.215707	0	-0.349391	2.00E-06	0.905866	2.00E-06	0	0	0	-0.13	0	0.305	0	0	0
3.216	8.825251	111.260513	-0.225336	0.216542	0	-0.349391	3.00E-06	0.946145	2.00E-06	0	0	0	-0.13	0	0.305	0	0	0
3.217	8.825251	111.429855	-0.303747	0.216542	0	-0.349391	3.00E-06	0.946145	2.00E-06	0	0	0	-0.13	0	0.305	0	0	0
3.218	8.981674	111.429855	-0.303747	0.216412	0	-0.349419	3.00E-06	1.075524	2.00E-06	0	0	0	-0.13	0	0.305	0	0	0
3.219	8.820921	111.253571	-0.068874	0.216412	0	-0.349419	2.00E-06	1.075524	2.00E-06	0	0	0	-0.13	0	0.305	0	0	0
3.22	8.822365	110.388016	0.009575	0.216412	0	-0.349419	2.00E-06	1.045393	2.00E-06	0	0	0	-0.13	0	0.305	0	0	0
3.221	8.822365	109.707993	0.009575	0.216331	0	-0.350492	2.00E-06	1.034623	2.00E-06	0	0	0	-0.13	0	0.305	0	0	0
3.222	8.822365	109.707993	0.009575	0.215826	0	-0.349204	3.00E-06	1.036981	1.00E-06	0	0	0	-0.13	0	0.305	0	0	0
3.223	8.977345	109.543686	-0.146965	0.215826	0	-0.349204	3.00E-06	1.029372	2.00E-06	0	0	0	-0.13	0	0.305	0	0	0
3.224	9.215227	111.072693	-0.147085	0.217085	0	-0.344575	1.00E-06	0.991425	2.00E-06	0	0	0	-0.13	0	0.305	0	0	0
3.225	9.215227	109.543686	-0.147085	0.217085	0	-0.344575	0	0.991425	2.00E-06	0	0	0	-0.13	0	0.305	0	0	0
3.226	9.133768	109.022568	-0.225294	0.217085	0	-0.346968	0	0.991425	1.00E-06	0	0	0	-0.13	0	0.305	0	0	0
3.227	8.823807	109.022568	-0.068756	0.217564	0	-0.34824	3.00E-06	0.986691	1.00E-06	0	0	0	-0.13	0	0.305	0	0	0
3.228	8.976622	109.02565	-0.225294	0.217564	0	-0.349808	3.00E-06	0.986691	1.00E-06	0	0	0	-0.13	0	0.305	0	0	0
3.229	8.976622	109.19342	-0.068756	0.217133	0	-0.34824	1.00E-06	0.977186	1.00E-06	0	0	0	-0.13	0	0.305	0	0	0
3.23	9.290913	109.533646	-0.147127	0.217133	0	-0.348175	1.00E-06	1.019193	1.00E-06	0	0	0	-0.13	0	0.305	0	0	0
3.231	9.604483	110.739807	0.244648	0.217133	0	-0.347957	4.00E-06	0.968046	1.00E-06	0	0	0	-0.13	0	0.305	0	0	0
3.232	9.682333	110.739807	-0.147127	0.216748	0	-0.347957	4.00E-06	0.903589	0	0	0	0	-0.13	0	0.305	0	0	0
3.233	9.682333	108.853638	-0.381918	0.216748	0	-0.347957	1.00E-06	0.903589	0	0	0	0	-0.13	0	0.305	0	0	0
3.234	9.134489	108.160858	-0.381956	0.216748	0	-0.348444	1.00E-06	0.992116	0.00E+00	0	0	0	-0.13	0	0.305	0	0	0
3.235	9.134489	108.853638	-0.381956	0.216398	0	-0.344328	1.00E-06	1.002831	0	0	0	0	-0.13	0	0.305	0	0	0
3.236	8.820921	109.035721	0.087824	0.216398	0	-0.344555	1.00E-06	1.091897	0	0	0	0	-0.13	0	0.305	0	0	0
3.237	8.820921	109.035721	0.087824	0.216631	0	-0.344467	2.00E-06	1.122638	1.00E-06	0	0	0	-0.13	0	0.305	0	0	0
3.238	8.820921	109.194984	-0.382078	0.217337	0	-0.344555	2.00E-06	1.141706	1.00E-06	0	0	0	-0.13	0	0.305	0	0	0
3.239	8.663776	109.194984	-0.382078	0.217834	0	-0.346015	2.00E-06	1.141706	2.00E-06	0	0	0	-0.13	0	0.305	0	0	0
3.24	8.507351	109.719177	0.009657	0.218309	0	-0.346015	2.00E-06	1.121864	2.00E-06	0	0	0	-0.13	0	0.305	0	0	0
3.241	8.272356	109.719177	0.009657	0.218309	0	-0.346015	2.00E-06	1.116166	1.00E-06	0	0	0	-0.13	0	0.305	0	0	0
3.242	8.507351	109.20076	-0.538778	0.21838	0	-0.346129	2.00E-06	1.111227	1.00E-06	0	0	0	-0.13	0	0.305	0	0	0
3.243	8.585924	109.20076	-0.538778	0.218141	0	-0.347337	2.00E-06	1.054092	1.00E-06	0	0	0	-0.13	0	0.305	0	0	0
3.244	8.586647	109.20076	-0.381996	0.217859	0	-0.347424	2.00E-06	1.01138	1.00E-06	0	0	0	-0.13	0	0.305	0	0	0
3.245	8.585924	109.012909	-0.381996	0.217859	0	-0.350262	2.00E-06	1.01138	1.00E-06	0	0	0	-0.13	0	0.305	0	0	0
3.246	8.586647	108.842812	-0.381996	0.217859	0	-0.350262	2.00E-06	0.965864	2.00E-06	0	0	0	-0.13	0	0.305	0	0	0
3.247	8.664497	108.842812	-0.303707	0.217946	0	-0.350763	3.00E-06	0.965864	1.00E-06	0	0	0	-0.13	0	0.305	0	0	0
3.248	8.664497	109.016373	-0.303707	0.216309	0	-0.350038	4.00E-06	0.935782	1.00E-06	0	0	0	-0.13	0	0.305	0	0	0
3.249	8.664497	109.016373	-0.225376	0.217753	0	-0.350288	3.00E-06	1.013119	1.00E-06	0	0	0	-0.13	0	0.305	0	0	0
3.25	8.820921	108.337906	-0.225376	0.216977	0	-0.350038	1.00E-06	1.032363	1.00E-06	0	0	0	-0.13	0	0.305	0	0	0
3.251	8.978786	108.337906	-0.225294	0.216977	0	-0.350288	1.00E-06	1.032363	2.00E-06	0	0	0	-0.13	0	0.305	0	0	0
3.252	9.052309	108.337906	-0.147085	0.216558	0	-0.347311	2.00E-06	1.032363	1.00E-06	0	0	0	-0.13	0	0.305	0	0	0
3.253	9.052309	107.969566	-0.225294	0.216558	0	-0.347959	2.00E-06	1.130858	1.00E-06	0	0	0	-0.13	0	0.305	0	0	0
3.254	8.822365	107.816025	-0.225416	0.218343	0	-0.347291	2.00E-06	1.130858	0	0	0	0	-0.13	0	0.305	0	0	0
3.255	8.821642	106.789238	-0.225416	0.218343	0	-0.346427	2.00E-06	1.039986	0	0	0	0	-0.13	0	0.305	0	0	0
3.256	8.821642	106.789238	0.009817	0.218509	0	-0.346427	1.00E-06	0.99886	1.00E-06	0	0	0	-0.13	0	0.305	0	0	0
3.257	8.664497	106.089157	0.401468	0.218076	0	-0.347788	1.00E-06	0.985701	1.00E-06	0	0	0	-0.13	0	0.305	0	0	0
3.258	8.510962	107.30146	0.009817	0.218934	0	-0.348987	1.00E-06	0.985701	1.00E-06	0	0	0	-0.13	0	0.305	0	0	0
3.259	8.429501	105.225876	-0.068474	0.218076	0	-0.350643	1.00E-06	0.985359	1.00E-06	0	0	0	-0.13	0	0.305	0	0	0
3.26	8.429501	105.225876	-0.068474	0.216832	0	-0.352253	2.00E-06	0.943544	1.00E-06	0	0	0	-0.13	0	0.305	0	0	0
3.261	8.429501	105.225876	0.009735	0.216832	0	-0.350643	2.00E-06	0.947883	1.00E-06	0	0	0	-0.13	0	0.305	0	0	0
3.262	8.979509	106.091843	0.009735	0.216832	0	-0.348746	2.00E-06	0.943544	1.00E-06	0	0	0	-0.13	0	0.305	0	0	0
3.263	8.979509	106.091843	0.009735	0.216756	0	-0.346651	2.00E-06	0.947883	1.00E-06	0	0	0	-0.13	0	0.305	0	0	0
3.264	9.134489	105.056961	0.166517	0.216756	0	-0.347663	2.00E-06	0.950063	1.00E-06	0	0	0	-0.13	0	0.305	0	0	0
3.265	9.137377	104.547806	0.166517	0.216458	0	-0.347663	2.00E-06	0.950063	0	0	0	0	-0.13	0	0.305	0	0	0
3.266	9.525188	105.056961	0.088106	0.217962	0	-0.347705	2.00E-06	0.853148	0	0	0	0	-0.13	0	0.305	0	0	0
3.267	9.445173	105.060814	0.088106	0.217244	0	-0.347705	2.00E-06	0.853148	1.00E-06	0	0	0	-0.13	0	0.305	0	0	0
3.268	9.445173	105.060814	0.088106	0.217244	0	-0.345143	2.00E-06	1.078749	1.00E-06	0	0	0	-0.13	0	0.305	0	0	0
3.269	9.215948	104.021317	0.009817	0.217244	0	-0.345143	2.00E-06	1.078749	1.00E-06	0	0	0	-0.13	0	0.305	0	0	0
3.27	8.899494	104.021317	-0.147005	0.217491	0	-0.345143	2.00E-06	1.084264	1.00E-06	0	0	0	-0.13	0	0.305	0	0	0
3.271	8.899494	101.790634	-0.068434	0.217491	0	-0.344921	2.00E-06	1.084264	1.00E-06	0	0	0	-0.13	0	0.305	0	0	0
3.272	8.899494	102.994499	-0.147005	0.217491	0	-0.344921	2.00E-06	1.084264	1.00E-06	0	0	0	-0.13	0	0.305	0	0	0
3.273	8.590977	102.994499	-0.225136	0.218498	0	-0.346061	2.00E-06	0.878122	1.00E-06	0	0	0	-0.13	0	0.305	0	0	0
3.274	8.743792	104.033264	-0.225136	0.218498	0	-0.346061	2.00E-06	0.878122	1.00E-06	0	0	0	-0.13	0	0.305	0	0	0
3.275	8.743792	104.895348	-0.381796	0.218428	0	-0.346061	3.00E-06	0.922885	2.00E-06	0	0	0	-0.13	0	0.305	0	0	0
3.276	9.213785	105.575378	-0.381796	0.216982	0	-0.346411	2.00E-06	0.922885	2.00E-06	0	0	0	-0.13	0	0.305	0	0	0
3.277	9.213785	105.575378	-0.381796	0.218228	0	-0.346411	2.00E-06	0.922885	0	0	0	0	-0.13	0	0.305	0	0	0
3.278	9.133047	104.204903	-0.460327	0.217717	0	-0.346043	2.00E-06	0.95399	0	0	0	0	-0.13	0	0.305	0	0	0
3.279	9.054474	104.204903	-0.460287	0.217717	0	-0.346043	3.00E-06	1.044972	1.00E-06	0	0	0	-0.13	0	0.305	0	0	0
3.28	9.054474	104.204903	-0.460327	0.217717	0	-0.346043	3.00E-06	1.044972	1.00E-06	0	0	0	-0.13	0	0.305	0	0	0
